<svg width="400" height="400" viewBox="0 0 400 400" fill="none" xmlns="http://www.w3.org/2000/svg">
<g clip-path="url(#clip0_43_551)">
<g clip-path="url(#clip1_43_551)">
<rect x="-6" y="240" width="413" height="309" rx="140" fill="#618DFF"/>
<ellipse cx="200.5" cy="249.5" rx="59.5" ry="27.5" fill="#F6BC4C"/>
<g clip-path="url(#clip2_43_551)">
<path d="M338.305 102.732C334.999 97.6691 332.665 92.3138 330.138 86.5689C326.929 79.2662 323.234 70.9898 316.915 62.0318C305.053 45.1869 285.316 37.6894 265.385 42.3631C258.676 43.9211 253.134 46.55 247.787 49.0816C244.676 50.5422 241.759 52.0027 238.55 53.1712C224.161 58.5265 208.507 58.5265 200.049 58.5265H199.854C191.493 58.5265 175.839 58.5265 161.353 53.1712C158.241 52.0027 155.227 50.5422 152.116 49.0816C146.769 46.55 141.324 43.9211 134.518 42.3631C114.684 37.592 94.8497 45.0895 82.8908 62.0318C76.6683 70.8924 72.9737 79.2662 69.668 86.5689C67.1402 92.2164 64.8067 97.5717 61.501 102.635C47.9866 124.056 33.7915 146.159 37.6806 174.688C44.3892 224.542 102.044 252 200.049 252C298.053 252 355.708 224.542 362.417 174.688C366.306 146.062 352.111 124.056 338.402 102.635L338.305 102.732Z" fill="#F6CA4C"/>
<path d="M190.812 141.291C191.007 158.72 169.714 164.173 143.56 164.465C117.406 164.757 96.5026 159.986 96.2109 142.557C95.9192 125.127 116.92 110.619 143.074 110.327C169.228 110.035 190.52 123.862 190.812 141.291Z" fill="white"/>
<path d="M140.935 168.067C127.226 168.067 116.726 166.607 108.948 163.491C95.7247 158.33 92.8079 149.275 92.7107 142.654C92.6135 133.014 97.9609 123.959 107.781 117.143C117.212 110.619 129.657 107.017 142.977 106.822C156.491 106.53 168.936 109.938 178.464 116.169C188.479 122.693 194.118 131.554 194.215 141.291C194.41 158.623 177.395 167.581 143.463 168.067C142.588 168.067 141.616 168.067 140.741 168.067H140.935ZM144.143 113.833C144.143 113.833 143.463 113.833 143.171 113.833C131.212 114.027 120.129 117.24 111.864 122.888C103.989 128.341 99.711 135.254 99.9055 142.459C99.9055 149.178 103.697 153.754 111.573 156.87C118.865 159.694 129.56 161.154 143.56 160.862C172.728 160.473 187.506 153.851 187.312 141.291C187.312 134.085 182.742 127.27 174.77 122.012C166.603 116.656 155.713 113.735 144.143 113.735V113.833Z" fill="#231815"/>
<path d="M143.56 164.465C159.025 164.465 171.561 152.346 171.561 137.396C171.561 122.446 159.025 110.327 143.56 110.327C128.095 110.327 115.559 122.446 115.559 137.396C115.559 152.346 128.095 164.465 143.56 164.465Z" fill="#231815"/>
<path d="M144.338 122.693C147.644 126.588 145.407 131.651 140.935 135.838C136.268 140.22 129.657 141.583 126.448 137.688C123.24 133.793 124.504 127.27 129.462 123.18C134.421 119.091 141.032 118.896 144.338 122.791V122.693Z" fill="white"/>
<path d="M303.692 141.291C303.886 158.72 282.594 164.173 256.44 164.465C230.286 164.757 209.382 159.986 209.091 142.557C208.799 125.127 229.8 110.619 255.954 110.327C282.108 110.035 303.4 123.862 303.692 141.291Z" fill="white"/>
<path d="M253.815 168.067C240.106 168.067 229.605 166.607 221.827 163.491C208.605 158.33 205.688 149.275 205.591 142.654C205.299 123.277 227.855 107.211 255.857 106.822C269.371 106.53 281.816 109.938 291.344 116.169C301.358 122.693 306.998 131.554 307.095 141.291C307.095 147.912 304.47 157.065 291.15 162.615C282.885 166.12 271.413 167.873 256.343 168.067C255.468 168.067 254.495 168.067 253.62 168.067H253.815ZM257.023 113.833C257.023 113.833 256.343 113.833 256.051 113.833C231.939 114.125 212.494 127.075 212.688 142.557C212.688 149.275 216.48 153.851 224.355 156.967C231.647 159.791 242.439 161.252 256.343 160.959C270.343 160.765 281.135 159.109 288.525 156.091C296.497 152.78 300.192 148.107 300.095 141.388C300.095 134.183 295.525 127.27 287.552 122.109C279.385 116.754 268.496 113.833 256.926 113.833H257.023Z" fill="#231815"/>
<path d="M256.44 164.465C271.905 164.465 284.441 152.346 284.441 137.396C284.441 122.446 271.905 110.327 256.44 110.327C240.975 110.327 228.439 122.446 228.439 137.396C228.439 152.346 240.975 164.465 256.44 164.465Z" fill="#231815"/>
<path d="M257.218 122.693C260.523 126.588 258.287 131.651 253.815 135.838C249.148 140.22 242.537 141.583 239.328 137.688C236.12 133.793 237.384 127.27 242.342 123.18C247.301 119.091 253.912 118.896 257.218 122.791V122.693Z" fill="white"/>
<path d="M199.951 208.865C182.353 208.865 170.492 202.341 164.658 189.586C163.88 187.833 164.658 185.691 166.408 184.912C168.158 184.133 170.297 184.912 171.075 186.665C175.645 196.694 185.367 201.757 199.951 201.757C214.535 201.757 224.258 196.694 228.828 186.665C229.605 184.912 231.744 184.133 233.494 184.912C235.245 185.691 236.022 187.833 235.245 189.586C229.411 202.341 217.549 208.865 199.951 208.865Z" fill="#231815"/>
</g>
</g>
<rect x="72" y="266" width="255" height="162" rx="10" fill="#D9DBE0"/>
<ellipse cx="198.5" cy="347" rx="21.5" ry="21" fill="#F3F5FA"/>
</g>
<defs>
<clipPath id="clip0_43_551">
<rect width="400" height="400" fill="white"/>
</clipPath>
<clipPath id="clip1_43_551">
<rect width="503" height="503" fill="white" transform="translate(-51 -93)"/>
</clipPath>
<clipPath id="clip2_43_551">
<rect width="326" height="211" fill="white" transform="translate(37 41)"/>
</clipPath>
</defs>
</svg>
