<svg width="20" height="20" viewBox="0 0 20 20" fill="none" xmlns="http://www.w3.org/2000/svg">
<g id="Group 70">
<g id="Union">
<path d="M9.99994 4.20001C7.95649 4.20001 6.29994 5.85656 6.29994 7.90001V9.30001C6.29994 9.79707 6.70288 10.2 7.19994 10.2C7.69699 10.2 8.09994 9.79707 8.09994 9.30001V7.90001C8.09994 6.85067 8.9506 6.00001 9.99994 6.00001C10.497 6.00001 10.8999 5.59707 10.8999 5.10001C10.8999 4.60296 10.497 4.20001 9.99994 4.20001Z" fill="#2E6FF2"/>
<path fill-rule="evenodd" clip-rule="evenodd" d="M2.79995 7.90001C2.79995 3.92356 6.0235 0.700012 9.99995 0.700012C13.9764 0.700012 17.1999 3.92356 17.1999 7.90001V13.525C18.4292 14.005 19.2999 15.2008 19.2999 16.6V18.4C19.2999 18.8971 18.897 19.3 18.4 19.3H1.59995C1.10289 19.3 0.699951 18.8971 0.699951 18.4V16.6C0.699951 15.2008 1.57074 14.005 2.79995 13.525V7.90001ZM2.49995 16.6C2.49995 15.7716 3.17152 15.1 3.99995 15.1H16C16.8284 15.1 17.5 15.7716 17.5 16.6V17.5H2.49995V16.6ZM15.4 7.90001V13.3H4.59995V7.90001C4.59995 4.91767 7.01761 2.50001 9.99995 2.50001C12.9823 2.50001 15.4 4.91767 15.4 7.90001Z" fill="#2E6FF2"/>
</g>
</g>
</svg>
