<svg width="42" height="42" viewBox="0 0 42 42" fill="none" xmlns="http://www.w3.org/2000/svg">
<rect width="42" height="42" rx="21" fill="#DEE8FF"/>
<path d="M20.9999 15.2C18.9565 15.2 17.2999 16.8566 17.2999 18.9V20.3C17.2999 20.7971 17.7029 21.2 18.1999 21.2C18.697 21.2 19.0999 20.7971 19.0999 20.3V18.9C19.0999 17.8507 19.9506 17 20.9999 17C21.497 17 21.8999 16.5971 21.8999 16.1C21.8999 15.603 21.497 15.2 20.9999 15.2Z" fill="#2E6FF2"/>
<path fill-rule="evenodd" clip-rule="evenodd" d="M13.8 18.9C13.8 14.9236 17.0235 11.7 21 11.7C24.9764 11.7 28.1999 14.9236 28.1999 18.9V24.525C29.4292 25.005 30.2999 26.2008 30.2999 27.6V29.4C30.2999 29.8971 29.897 30.3 29.4 30.3H12.6C12.1029 30.3 11.7 29.8971 11.7 29.4V27.6C11.7 26.2008 12.5707 25.005 13.8 24.525V18.9ZM13.5 27.6C13.5 26.7716 14.1715 26.1 15 26.1H27C27.8284 26.1 28.5 26.7716 28.5 27.6V28.5H13.5V27.6ZM26.4 18.9V24.3H15.6V18.9C15.6 15.9177 18.0176 13.5 21 13.5C23.9823 13.5 26.4 15.9177 26.4 18.9Z" fill="#2E6FF2"/>
</svg>
