<svg width="400" height="400" viewBox="0 0 400 400" fill="none" xmlns="http://www.w3.org/2000/svg">
<g clip-path="url(#clip0_43_368)">
<g clip-path="url(#clip1_43_368)">
<rect x="-6" y="240" width="413" height="309" rx="140" fill="#2E6FF2"/>
<ellipse cx="200.5" cy="249.5" rx="59.5" ry="27.5" fill="#CACACA"/>
<g clip-path="url(#clip2_43_368)">
<path d="M347.903 150.592C346.937 138.514 336.409 132.62 329.261 130.688C326.266 116.195 320.857 103.151 313.323 91.8467C326.363 78.7063 326.17 59.4788 312.84 46.1452C306.464 39.8649 298.544 36.2899 290.333 36C282.122 35.7102 273.526 39.1885 266.957 45.7587C265.122 47.5945 263.383 49.7201 261.934 51.9424C252.178 48.1742 239.621 45.4688 225.325 44.0195C209.194 42.377 191.517 42.377 175.385 44.0195C161.186 45.4688 148.629 48.2708 138.776 51.9424C137.327 49.7201 135.685 47.6911 133.85 45.7587C120.713 32.6183 101.491 32.8116 88.0639 46.1452C74.7338 59.4788 74.5406 78.7063 87.5809 91.8467C80.0465 103.151 74.6372 116.195 71.6428 130.688C64.4948 132.62 53.966 138.514 53 150.592C52.3239 159.191 57.1536 164.795 61.0174 167.79C57.3468 171.752 52.7102 178.708 55.2217 187.404C57.7332 196.1 64.9778 199.675 70.9666 200.835C69.6143 205.376 68.8415 212.332 73.1883 218.613C78.501 226.342 87.2911 226.536 92.8936 225.086C99.1722 233.492 124.673 259 200.597 259C276.52 259 301.924 233.492 308.3 225.086C313.902 226.439 322.692 226.342 328.005 218.613C332.352 212.332 331.482 205.376 330.227 200.835C336.119 199.675 343.46 196.004 345.971 187.404C348.483 178.708 343.846 171.752 340.176 167.79C344.04 164.795 348.869 159.191 348.193 150.592H347.903Z" fill="#E5E5E5"/>
<path d="M85.5523 164.602C84.0068 164.602 82.5579 163.636 82.0749 161.993C81.4954 160.061 82.5579 158.032 84.4898 157.452C84.9728 157.355 96.1778 153.974 113.468 153.684C115.593 153.877 117.139 155.23 117.139 157.259C117.139 159.288 115.593 160.93 113.565 160.93C97.3369 161.123 86.7115 164.312 86.6149 164.312C86.2285 164.409 85.9387 164.505 85.5523 164.505V164.602Z" fill="#231815"/>
<path d="M92.8936 192.332C91.6379 192.332 90.3821 191.656 89.706 190.399C88.74 188.66 89.4162 186.438 91.1549 185.472C91.5413 185.279 100.428 180.544 115.787 177.646C117.815 177.259 119.65 178.612 120.037 180.544C120.423 182.477 119.167 184.409 117.139 184.795C102.939 187.501 94.6323 191.849 94.5357 191.945C93.9561 192.235 93.3766 192.332 92.797 192.332H92.8936Z" fill="#231815"/>
<path d="M315.351 164.602C315.351 164.602 314.675 164.602 314.288 164.409C314.192 164.409 303.47 161.22 287.339 161.027C285.31 161.027 283.765 159.384 283.765 157.355C283.765 155.326 285.696 153.974 287.435 153.78C304.726 153.974 315.931 157.355 316.414 157.549C318.345 158.128 319.408 160.157 318.828 162.09C318.345 163.636 316.896 164.699 315.351 164.699V164.602Z" fill="#231815"/>
<path d="M308.106 192.332C307.527 192.332 306.947 192.235 306.368 191.945C306.368 191.945 297.964 187.501 283.765 184.795C281.833 184.409 280.48 182.477 280.867 180.544C281.253 178.612 282.992 177.259 285.117 177.646C300.475 180.544 309.459 185.279 309.845 185.472C311.584 186.438 312.26 188.564 311.294 190.399C310.618 191.656 309.362 192.332 308.106 192.332Z" fill="#231815"/>
<path d="M200.5 82.3779C198.472 82.3779 196.829 80.7353 196.829 78.7063V46.3384C196.829 44.3094 198.472 42.6669 200.5 42.6669C202.529 42.6669 204.171 44.3094 204.171 46.3384V78.7063C204.171 80.7353 202.529 82.3779 200.5 82.3779Z" fill="#231815"/>
<path d="M175.868 72.5225C174.033 72.5225 172.488 71.1698 172.294 69.3341C170.942 58.3193 172.294 47.5945 172.294 47.1114C172.584 45.0823 174.323 43.7296 176.351 43.9229C178.38 44.2127 179.732 45.9519 179.539 47.9809C179.539 48.0776 178.283 58.3193 179.539 68.3678C179.829 70.3969 178.38 72.136 176.351 72.4259C176.158 72.4259 176.062 72.4259 175.868 72.4259V72.5225Z" fill="#231815"/>
<path d="M225.035 72.5226C225.035 72.5226 224.745 72.5226 224.552 72.5226C222.524 72.2327 221.171 70.4936 221.364 68.4645C222.62 58.416 221.364 48.1742 221.364 48.0776C221.075 46.0486 222.524 44.3094 224.552 44.0196C226.581 43.8263 228.319 45.179 228.609 47.208C228.609 47.6911 229.961 58.416 228.609 69.4307C228.416 71.2665 226.774 72.6192 225.035 72.6192V72.5226Z" fill="#231815"/>
<path d="M179.249 145.664C183.197 145.664 186.397 142.463 186.397 138.514C186.397 134.566 183.197 131.364 179.249 131.364C175.301 131.364 172.101 134.566 172.101 138.514C172.101 142.463 175.301 145.664 179.249 145.664Z" fill="#231815"/>
<path d="M221.654 145.664C225.602 145.664 228.802 142.463 228.802 138.514C228.802 134.566 225.602 131.364 221.654 131.364C217.706 131.364 214.506 134.566 214.506 138.514C214.506 142.463 217.706 145.664 221.654 145.664Z" fill="#231815"/>
<path d="M247.252 183.926C247.252 205.086 227.643 219.772 200.5 219.772C173.357 219.772 153.748 205.086 153.748 183.926C153.748 162.766 173.357 145.664 200.5 145.664C227.643 145.664 247.252 162.766 247.252 183.926Z" fill="white"/>
<path d="M200.5 170.399C209.249 170.399 216.341 165.684 216.341 159.867C216.341 154.051 209.249 149.336 200.5 149.336C191.751 149.336 184.658 154.051 184.658 159.867C184.658 165.684 191.751 170.399 200.5 170.399Z" fill="#231815"/>
<path d="M185.818 192.525C172.681 192.525 167.948 182.67 167.368 177.452C167.078 175.423 168.527 173.684 170.556 173.394C172.584 173.104 174.323 174.554 174.613 176.486C174.709 177.452 176.158 185.279 185.914 185.279C194.994 185.279 196.926 177.356 196.926 174.264V157.355C196.926 155.326 198.568 153.684 200.597 153.684C202.625 153.684 204.267 155.326 204.267 157.355V174.264C204.267 183.153 197.892 192.525 186.011 192.525H185.818Z" fill="#231815"/>
<path d="M215.086 192.525C203.205 192.525 196.829 183.153 196.829 174.264V157.355C196.829 155.326 198.471 153.684 200.5 153.684C202.528 153.684 204.171 155.326 204.171 157.355V174.264C204.171 177.356 206.199 185.279 215.182 185.279C224.938 185.279 226.387 177.356 226.484 176.486C226.774 174.554 228.512 173.104 230.541 173.394C232.473 173.684 233.922 175.423 233.632 177.452C232.956 182.67 228.319 192.525 215.182 192.525H215.086Z" fill="#231815"/>
<path d="M180.022 198.902C178.67 198.902 177.317 198.129 176.738 196.776C174.709 192.332 175.482 188.081 175.579 187.598C175.965 185.665 177.8 184.312 179.829 184.796C181.761 185.182 183.016 187.114 182.63 189.047C182.63 189.047 182.244 191.462 183.306 193.781C184.175 195.617 183.306 197.743 181.567 198.612C181.084 198.806 180.505 198.999 180.022 198.999V198.902Z" fill="#231815"/>
<path d="M220.978 198.902C220.495 198.902 219.915 198.806 219.433 198.516C217.597 197.646 216.824 195.52 217.694 193.685C218.756 191.366 218.37 189.047 218.37 188.95C217.984 187.018 219.239 185.085 221.268 184.699C223.296 184.312 225.132 185.569 225.518 187.598C225.518 188.081 226.387 192.332 224.359 196.777C223.779 198.129 222.427 198.902 221.075 198.902H220.978Z" fill="#231815"/>
<path opacity="0.2" d="M112.889 78.9961C111.15 78.9961 109.604 77.7401 109.315 76.0009C108.059 68.5611 103.905 65.5659 103.712 65.3726C102.07 64.2132 101.684 61.9909 102.843 60.3484C104.002 58.7058 106.224 58.3193 107.866 59.3822C108.156 59.5754 114.724 64.1166 116.559 74.7448C116.849 76.6772 115.593 78.6096 113.565 78.8995C113.372 78.8995 113.178 78.8995 112.985 78.8995L112.889 78.9961Z" fill="#231815"/>
<path opacity="0.2" d="M288.111 78.996C288.111 78.996 287.725 78.996 287.532 78.996C285.6 78.6096 284.248 76.7738 284.537 74.8414C286.373 64.2131 292.941 59.672 293.231 59.4787C294.873 58.3193 297.191 58.8024 298.254 60.4449C299.413 62.0875 298.93 64.3097 297.288 65.4692C296.998 65.6624 292.941 68.7543 291.685 76.0974C291.396 77.8366 289.85 79.0927 288.111 79.0927V78.996Z" fill="#231815"/>
</g>
</g>
<rect x="72" y="266" width="255" height="162" rx="10" fill="#47494D"/>
<ellipse cx="198.5" cy="347" rx="21.5" ry="21" fill="#8D9299"/>
</g>
<defs>
<clipPath id="clip0_43_368">
<rect width="400" height="400" fill="white"/>
</clipPath>
<clipPath id="clip1_43_368">
<rect width="503" height="503" fill="white" transform="translate(-51 -93)"/>
</clipPath>
<clipPath id="clip2_43_368">
<rect width="295" height="223" fill="white" transform="translate(53 36)"/>
</clipPath>
</defs>
</svg>
