<svg width="24" height="24" viewBox="0 0 24 24" fill="none" xmlns="http://www.w3.org/2000/svg">
<g id="icon-up-arrow">
<path id="Union" d="M12.0001 3.90002C12.2648 3.90003 12.5027 4.01427 12.6674 4.19613L18.6661 10.7946C19.0004 11.1624 18.9733 11.7316 18.6055 12.066C18.2377 12.4003 17.6685 12.3732 17.3342 12.0054L12.9001 7.12796V19.2C12.9001 19.6971 12.4972 20.1 12.0001 20.1C11.503 20.1 11.1001 19.6971 11.1001 19.2V7.12798L6.66605 12.0054C6.33169 12.3732 5.76249 12.4003 5.3947 12.066C5.02691 11.7316 4.9998 11.1624 5.33416 10.7946L11.331 4.19813C11.4957 4.0151 11.7345 3.90002 12.0001 3.90002C12.0001 3.90002 12.0001 3.90002 12.0001 3.90002Z" fill="#8D9299"/>
</g>
</svg>
