<svg width="400" height="400" viewBox="0 0 400 400" fill="none" xmlns="http://www.w3.org/2000/svg">
<g clip-path="url(#clip0_43_496)">
<g clip-path="url(#clip1_43_496)">
<rect x="-6" y="240" width="413" height="309" rx="140" fill="#47494D"/>
<ellipse cx="200.5" cy="249.5" rx="59.5" ry="27.5" fill="#C9A887"/>
<g clip-path="url(#clip2_43_496)">
<path d="M90.532 206.08C90.532 206.08 51.0563 217.997 43.8056 184.972C36.555 151.948 77.9441 120.741 77.9441 120.741L106.645 150.837L90.4313 205.979L90.532 206.08Z" fill="#7E4D3F"/>
<path d="M310.468 206.08C310.468 206.08 349.944 218.098 357.094 185.073C364.244 152.049 322.955 120.842 322.955 120.842L294.255 150.938L310.468 206.08Z" fill="#7E4D3F"/>
<path d="M200.5 259C109.565 259 71.9019 229.106 71.9019 187.598C71.9019 176.489 75.6279 163.259 82.4757 150.029C66.766 140.233 56.2928 122.761 56.2928 102.764C56.1921 72.0625 81.0659 47.1173 111.78 47.1173C125.476 47.1173 137.963 52.1669 147.731 60.3473C147.731 60.3473 201.708 39.0379 253.269 60.3473C262.936 52.0659 275.524 47.1173 289.22 47.1173C319.934 47.1173 344.808 72.0625 344.808 102.865C344.808 122.761 334.335 140.233 318.625 150.13C325.473 163.36 329.199 176.489 329.199 187.699C329.199 229.207 291.536 259.101 200.601 259.101" fill="#DFBA95"/>
<path opacity="0.2" d="M122.858 127.407C120.944 127.407 119.232 125.892 119.132 123.973C116.413 92.463 91.539 92.1601 90.532 92.1601C88.4172 92.1601 86.7053 90.4432 86.7053 88.3223C86.7053 86.2015 88.4172 84.4846 90.532 84.4846C90.8341 84.4846 123.261 84.8886 126.684 123.165C126.886 125.286 125.375 127.104 123.261 127.306C123.16 127.306 123.059 127.306 122.958 127.306L122.858 127.407Z" fill="#231815"/>
<path opacity="0.2" d="M278.142 127.406C278.142 127.406 277.941 127.406 277.84 127.406C275.725 127.204 274.215 125.387 274.416 123.266C277.84 84.9895 310.267 84.5856 310.569 84.5856C312.683 84.5856 314.295 86.3024 314.295 88.3223C314.295 90.3422 312.583 92.16 310.569 92.16C309.461 92.16 284.688 92.766 281.969 123.973C281.768 125.892 280.156 127.406 278.243 127.406H278.142Z" fill="#231815"/>
<path d="M200.198 85.2926C201.406 93.271 205.434 100.341 205.434 100.341C193.149 102.259 173.411 101.249 163.542 92.8671C149.141 80.445 152.162 56.9137 165.354 43.8856C195.868 13.5878 247.528 34.7963 247.528 58.1256L240.781 56.7117C232.02 72.7695 244.407 92.1601 244.407 92.1601C209.463 97.8157 200.299 85.3936 200.299 85.3936L200.198 85.2926Z" fill="#7E4D3F"/>
<path d="M193.954 104.986C181.87 104.986 168.879 102.36 161.125 95.6948C154.479 90.0392 150.652 81.7579 150.249 72.3655C149.846 60.9534 154.479 49.3392 162.736 41.1588C182.575 21.2632 209.765 22.6771 226.884 29.8476C241.889 36.1092 251.254 46.9154 251.254 57.9236C251.254 59.0345 250.751 60.1454 249.845 60.8524C248.938 61.5593 247.831 61.8623 246.723 61.6603L242.896 60.8524C237.76 74.1834 247.428 89.7363 247.528 89.9383C248.233 91.0492 248.334 92.3621 247.831 93.473C247.327 94.6849 246.219 95.4929 245.011 95.6948C225.776 98.8256 213.793 96.7048 206.643 93.776C207.751 96.5028 208.758 98.3206 208.758 98.3206C209.362 99.4316 209.362 100.744 208.858 101.855C208.355 102.966 207.247 103.774 206.039 103.976C202.313 104.582 198.184 104.885 193.954 104.885V104.986ZM202.413 32.5744C190.732 32.5744 178.245 36.3112 167.973 46.5114C161.326 53.0759 157.399 62.8722 157.802 72.0626C158.003 77.2132 159.514 84.3837 165.959 89.9383C173.109 96.0988 187.711 98.1187 199.694 97.2097C198.486 94.1799 197.076 90.1402 196.472 85.8985C196.17 84.1817 197.177 82.4648 198.788 81.8588C200.299 81.1519 202.111 81.6569 203.219 83.0708C203.521 83.3737 211.477 92.3621 238.465 89.1303C235.041 81.7578 230.409 67.6189 237.357 54.8938C238.163 53.4799 239.875 52.672 241.386 52.9749L242.695 53.2779C240.278 47.0164 233.43 40.9568 223.964 37.0181C217.821 34.4933 210.369 32.7764 202.413 32.7764V32.5744Z" fill="#7E4D3F"/>
<path d="M200.198 89.0294C198.385 89.0294 196.774 87.7164 196.472 85.7976C195.968 82.3638 195.968 79.2331 196.472 76.4053C196.875 74.3854 198.788 72.9715 200.903 73.3755C202.917 73.7795 204.327 75.7993 203.924 77.8192C203.521 79.839 203.521 82.1618 203.924 84.6867C204.226 86.8075 202.816 88.7264 200.701 89.0294C200.5 89.0294 200.299 89.0294 200.198 89.0294Z" fill="#7E4D3F"/>
<path d="M193.954 104.986C181.87 104.986 168.879 102.36 161.125 95.6948C154.479 90.0392 150.652 81.7579 150.249 72.3655C149.846 60.9534 154.479 49.3392 162.736 41.1588C182.575 21.2632 209.765 22.6771 226.884 29.8476C241.889 36.1092 251.254 46.9154 251.254 57.9236C251.254 59.0345 250.751 60.1454 249.845 60.8524C248.938 61.5593 247.831 61.8623 246.723 61.6603L242.896 60.8524C237.76 74.1834 247.428 89.7363 247.528 89.9383C248.233 91.0492 248.334 92.3621 247.831 93.473C247.327 94.6849 246.219 95.4929 245.011 95.6948C225.776 98.8256 213.793 96.7048 206.643 93.776C207.751 96.5028 208.758 98.3206 208.758 98.3206C209.362 99.4316 209.362 100.744 208.858 101.855C208.355 102.966 207.247 103.774 206.039 103.976C202.313 104.582 198.184 104.885 193.954 104.885V104.986ZM202.413 32.5744C190.732 32.5744 178.245 36.3112 167.973 46.5114C161.326 53.0759 157.399 62.8722 157.802 72.0626C158.003 77.2132 159.514 84.3837 165.959 89.9383C173.109 96.0988 187.711 98.1187 199.694 97.2097C198.486 94.1799 197.076 90.1402 196.472 85.8985C196.17 84.1817 197.177 82.4648 198.788 81.8588C200.299 81.1519 202.111 81.6569 203.219 83.0708C203.521 83.3737 211.477 92.3621 238.465 89.1303C235.041 81.7578 230.409 67.6189 237.357 54.8938C238.163 53.4799 239.875 52.672 241.386 52.9749L242.695 53.2779C240.278 47.0164 233.43 40.9568 223.964 37.0181C217.821 34.4933 210.369 32.7764 202.413 32.7764V32.5744Z" fill="#7E4D3F"/>
<path d="M157.399 193.052C180.257 193.052 198.788 174.468 198.788 151.544C198.788 128.62 180.257 110.036 157.399 110.036C134.54 110.036 116.01 128.62 116.01 151.544C116.01 174.468 134.54 193.052 157.399 193.052Z" fill="white"/>
<path d="M243.601 193.052C266.46 193.052 284.99 174.468 284.99 151.544C284.99 128.62 266.46 110.036 243.601 110.036C220.742 110.036 202.212 128.62 202.212 151.544C202.212 174.468 220.742 193.052 243.601 193.052Z" fill="white"/>
<path d="M157.399 163.966C164.24 163.966 169.785 158.404 169.785 151.544C169.785 144.683 164.24 139.122 157.399 139.122C150.558 139.122 145.012 144.683 145.012 151.544C145.012 158.404 150.558 163.966 157.399 163.966Z" fill="#231815"/>
<path d="M243.601 163.966C250.442 163.966 255.987 158.404 255.987 151.544C255.987 144.683 250.442 139.122 243.601 139.122C236.76 139.122 231.214 144.683 231.214 151.544C231.214 158.404 236.76 163.966 243.601 163.966Z" fill="#231815"/>
<path d="M200.701 172.348C202.87 172.348 204.629 170.585 204.629 168.41C204.629 166.234 202.87 164.471 200.701 164.471C198.532 164.471 196.774 166.234 196.774 168.41C196.774 170.585 198.532 172.348 200.701 172.348Z" fill="white"/>
<path d="M215.303 186.487C223.058 192.85 232.826 196.789 243.601 196.789C268.475 196.789 288.817 176.489 288.817 151.443C288.817 126.397 268.575 106.097 243.601 106.097C223.158 106.097 206.039 119.832 200.5 138.617C194.961 119.933 177.842 106.097 157.399 106.097C132.525 106.097 112.183 126.397 112.183 151.443C112.183 176.489 132.425 196.789 157.399 196.789C168.174 196.789 177.942 192.85 185.697 186.487C187.912 190.022 191.94 193.052 196.673 194.163V202.646C195.968 204.666 191.94 213.654 176.935 213.654C163.441 213.654 159.413 207.696 159.212 207.292C158.205 205.474 155.888 204.868 154.076 205.878C152.263 206.888 151.558 209.211 152.666 211.029C152.867 211.433 158.507 221.229 176.935 221.229C189.926 221.229 196.774 215.775 200.399 211.029C204.025 215.775 210.872 221.229 223.863 221.229C242.191 221.229 247.931 211.534 248.133 211.13C249.14 209.312 248.535 207.09 246.723 206.08C244.91 205.07 242.695 205.676 241.587 207.393C241.386 207.696 237.458 213.755 223.863 213.755C208.959 213.755 204.931 204.767 204.125 202.747V194.264C208.959 193.153 212.886 190.224 215.102 186.588L215.303 186.487ZM243.601 113.773C264.346 113.773 281.264 130.739 281.264 151.544C281.264 172.348 264.346 189.315 243.601 189.315C233.229 189.315 223.863 185.073 217.015 178.206C216.411 175.58 214.598 173.459 211.98 171.843C208.254 165.986 205.938 159.017 205.938 151.544C205.938 130.739 222.856 113.773 243.601 113.773ZM119.736 151.544C119.736 130.739 136.654 113.773 157.399 113.773C178.144 113.773 195.062 130.739 195.062 151.544C195.062 159.017 192.847 165.986 189.02 171.843C186.402 173.459 184.589 175.58 183.985 178.206C177.137 185.073 167.771 189.315 157.399 189.315C136.654 189.315 119.736 172.348 119.736 151.544Z" fill="#231815"/>
</g>
</g>
<rect x="72" y="266" width="255" height="162" rx="10" fill="#D9DBE0"/>
<ellipse cx="198.5" cy="347" rx="21.5" ry="21" fill="#F3F5FA"/>
</g>
<defs>
<clipPath id="clip0_43_496">
<rect width="400" height="400" fill="white"/>
</clipPath>
<clipPath id="clip1_43_496">
<rect width="503" height="503" fill="white" transform="translate(-51 -93)"/>
</clipPath>
<clipPath id="clip2_43_496">
<rect width="315" height="234" fill="white" transform="translate(43 25)"/>
</clipPath>
</defs>
</svg>
