<svg width="400" height="400" viewBox="0 0 400 400" fill="none" xmlns="http://www.w3.org/2000/svg">
<g clip-path="url(#clip0_43_599)">
<g clip-path="url(#clip1_43_599)">
<rect x="-6" y="240" width="413" height="309" rx="140" fill="#ED4779"/>
<ellipse cx="200.5" cy="249.5" rx="59.5" ry="27.5" fill="#7D7B76"/>
<g clip-path="url(#clip2_43_599)">
<path d="M342.655 162.803C347.372 160.002 356.022 152.943 353.551 140.168C350.742 125.825 337.487 123.136 332.994 122.688C321.873 71.9262 280.199 57.471 270.651 54.7816C275.818 38.3094 280.76 19.2599 282.782 -8.3058C286.377 -57.0501 280.536 -89.8825 265.483 -106.019C258.631 -113.302 249.982 -117 239.76 -117C213.474 -117 203.926 -85.6244 200.556 -33.0702C197.186 -85.6244 187.638 -117 161.353 -117C151.018 -117 142.369 -113.302 135.629 -106.019C120.577 -89.8825 114.735 -57.0501 118.33 -8.3058C120.352 19.1479 125.295 38.3094 130.462 54.7816C120.914 57.471 79.2389 71.9262 68.1182 122.688C63.625 123.136 50.3699 125.713 47.5617 140.168C45.0904 153.055 53.6275 160.002 58.4577 162.803C54.8632 165.605 49.2466 171.544 50.7069 180.732C52.5042 191.49 61.1537 194.515 65.4222 195.412C64.4113 198.885 63.288 205.497 68.1182 211.548C74.6334 219.728 84.1815 218.607 87.7761 217.823C88.5624 218.944 90.135 220.848 92.6063 223.202C100.357 230.485 115.522 240.458 143.38 246.621C160.005 250.319 179.213 252.112 200.556 252.112C221.899 252.112 241.108 250.207 257.733 246.621C285.703 240.458 300.868 230.485 308.506 223.202C310.977 220.848 312.55 218.944 313.449 217.823C316.931 218.607 326.591 219.728 333.106 211.548C337.937 205.497 336.813 198.773 335.802 195.412C340.071 194.515 348.72 191.49 350.518 180.732C352.09 171.656 346.361 165.717 342.767 162.916L342.655 162.803Z" fill="#98958D"/>
<path d="M221.113 182.413C221.113 182.413 223.809 205.273 201.792 205.273V172.552L203.027 172.328C205.274 177.483 210.441 182.301 219.54 182.301C220.102 182.301 220.551 182.301 221.113 182.301V182.413Z" fill="white"/>
<path d="M201.792 166.389C201.792 167.062 201.792 167.734 201.679 168.406C189.323 168.406 182.246 161.011 182.246 153.839C182.246 146.667 189.435 140.841 201.904 140.841C214.373 140.841 221.562 146.667 221.562 153.839C221.562 161.011 214.485 168.294 202.129 168.406C202.129 167.734 202.016 167.062 202.016 166.389H201.792Z" fill="#231815"/>
<path d="M203.027 172.328L201.792 172.552V205.273C179.775 205.273 182.471 182.413 182.471 182.413C182.471 182.413 183.482 182.413 184.044 182.413C195.501 182.413 200.781 174.793 201.679 168.406H202.016C202.241 169.751 202.578 171.096 203.14 172.328H203.027Z" fill="white"/>
<path d="M201.904 168.406H201.567C201.567 167.734 201.679 167.062 201.679 166.389C201.679 167.062 201.679 167.734 201.792 168.406H201.904Z" fill="#231815"/>
<path d="M157.983 133.333C156.86 133.333 155.736 132.773 154.95 131.764C153.714 130.083 154.164 127.842 155.736 126.609C156.186 126.273 166.071 119.326 181.797 121.679C183.819 122.015 185.167 123.92 184.83 125.937C184.493 127.954 182.696 129.299 180.561 129.075C168.093 127.058 160.342 132.436 160.005 132.66C159.331 133.109 158.657 133.333 157.87 133.333H157.983Z" fill="#231815"/>
<path d="M245.488 133.333C244.702 133.333 244.028 133.109 243.354 132.66C243.354 132.66 235.266 127.17 222.798 129.075C220.663 129.411 218.866 128.066 218.529 126.049C218.192 124.032 219.54 122.127 221.562 121.791C237.176 119.326 247.173 126.385 247.623 126.721C249.308 127.954 249.645 130.195 248.409 131.876C247.735 132.885 246.499 133.445 245.376 133.445L245.488 133.333Z" fill="#231815"/>
<path d="M201.792 208.97C194.378 208.97 188.537 206.617 184.493 202.135C177.416 194.179 178.764 182.525 178.764 182.077C178.989 180.06 180.786 178.715 182.92 178.827C184.942 179.052 186.402 180.844 186.178 182.974C186.178 182.974 185.279 191.938 190.109 197.317C192.693 200.23 196.625 201.687 201.904 201.687C207.184 201.687 211.115 200.23 213.699 197.317C218.529 191.938 217.63 183.086 217.63 182.974C217.406 180.957 218.866 179.164 220.888 178.827C222.91 178.715 224.82 180.06 225.044 182.077C225.044 182.525 226.392 194.291 219.315 202.135C215.271 206.729 209.43 208.97 201.904 208.97H201.792Z" fill="#231815"/>
<path d="M201.792 208.97C199.77 208.97 198.085 207.29 198.085 205.273V172.552C198.085 170.535 199.77 168.854 201.792 168.854C203.814 168.854 205.499 170.535 205.499 172.552V205.273C205.499 207.29 203.814 208.97 201.792 208.97Z" fill="#231815"/>
<path d="M183.931 186.111H182.246C167.98 185.327 162.925 175.13 162.139 169.863C161.802 167.846 163.262 165.941 165.284 165.717C167.419 165.381 169.216 166.838 169.441 168.855C169.553 169.751 171.238 178.043 182.471 178.715H183.819C192.918 178.715 197.074 173.001 197.748 167.958C198.085 165.941 199.658 164.484 201.904 164.821C203.926 165.157 205.386 166.95 205.049 168.967C203.814 177.483 196.737 186.111 183.819 186.111H183.931Z" fill="#231815"/>
<path d="M219.54 186.111C206.173 186.111 201.118 177.483 199.545 173.785C198.871 172.216 198.422 170.535 198.197 168.967C197.86 166.95 199.321 165.045 201.342 164.821C203.252 164.484 205.274 165.941 205.499 167.958C205.611 168.967 205.948 170.087 206.397 170.984C207.633 173.897 211.003 178.715 219.54 178.715H221C232.233 178.043 233.806 169.751 233.918 168.855C234.255 166.838 236.165 165.493 238.187 165.717C240.209 166.053 241.557 167.846 241.332 169.863C240.658 175.13 235.491 185.327 221.337 185.999C220.776 185.999 220.214 185.999 219.54 185.999V186.111Z" fill="#231815"/>
<path d="M257.957 195.076C257.957 195.076 257.508 195.076 257.171 195.076C255.149 194.627 253.913 192.722 254.25 190.705C255.486 184.991 259.417 180.957 259.867 180.508C261.327 179.052 263.686 179.052 265.146 180.508C266.607 181.965 266.607 184.318 265.146 185.775C265.146 185.775 262.338 188.576 261.552 192.162C261.215 193.955 259.642 195.076 257.957 195.076Z" fill="#231815"/>
</g>
</g>
<rect x="72" y="266" width="255" height="162" rx="10" fill="#D9DBE0"/>
<ellipse cx="198.5" cy="347" rx="21.5" ry="21" fill="#F3F5FA"/>
</g>
<defs>
<clipPath id="clip0_43_599">
<rect width="400" height="400" fill="white"/>
</clipPath>
<clipPath id="clip1_43_599">
<rect width="503" height="503" fill="white" transform="translate(-51 -93)"/>
</clipPath>
<clipPath id="clip2_43_599">
<rect width="307" height="369" fill="white" transform="translate(47 -117)"/>
</clipPath>
</defs>
</svg>
