<svg width="22" height="22" viewBox="0 0 22 22" fill="none" xmlns="http://www.w3.org/2000/svg">
<g id="Group 55">
<path id="Ellipse 36 (Stroke)" fill-rule="evenodd" clip-rule="evenodd" d="M11 2.3C6.19512 2.3 2.3 6.19512 2.3 11C2.3 15.8049 6.19512 19.7 11 19.7C15.8049 19.7 19.7 15.8049 19.7 11C19.7 6.19512 15.8049 2.3 11 2.3ZM0.5 11C0.5 5.20101 5.20101 0.5 11 0.5C16.799 0.5 21.5 5.20101 21.5 11C21.5 16.799 16.799 21.5 11 21.5C5.20101 21.5 0.5 16.799 0.5 11Z" fill="#618DFF"/>
<path id="Vector (Stroke)" fill-rule="evenodd" clip-rule="evenodd" d="M15.1544 7.89104C15.546 8.19725 15.6152 8.76288 15.3089 9.15442L11.0859 14.5544C10.9282 14.756 10.6921 14.881 10.4367 14.898C10.1814 14.915 9.93081 14.8225 9.74779 14.6436L6.77086 11.7334C6.41543 11.3859 6.40896 10.8161 6.75643 10.4607C7.10389 10.1053 7.6737 10.0988 8.02914 10.4463L10.2872 12.6537L13.8911 8.04556C14.1973 7.65402 14.7629 7.58484 15.1544 7.89104Z" fill="#618DFF"/>
</g>
</svg>
