<svg width="16" height="15" viewBox="0 0 16 15" fill="none" xmlns="http://www.w3.org/2000/svg">
<path d="M5.0501 3.07271C5.0501 3.17295 5.0501 3.2732 5.05044 3.37344C5.05077 3.62575 5.04655 3.87806 5.05567 4.13037C5.05989 4.18594 5.06277 4.2422 5.07662 4.29641C5.09199 4.35881 5.12206 4.41848 5.16716 4.4645C5.20959 4.50945 5.26529 4.53935 5.32594 4.54974C5.37222 4.57958 5.41192 4.61845 5.4506 4.65766L5.49705 4.70539V7.71435H7.02356L6.99366 4.2884C6.96291 4.22788 6.93285 4.16702 6.90379 4.10565C6.84839 3.98972 6.79315 3.87345 6.72592 3.76401C6.57391 3.52039 6.35419 3.32734 6.09417 3.20893C6.05279 3.19017 6.0114 3.17227 5.96884 3.15659C5.81073 3.09794 5.64519 3.06351 5.47932 3.0364C5.42357 3.02719 5.36783 3.01901 5.31209 3.00964L5.0501 2.96667V3.07271ZM1.6525 3.24916L1.65926 4.75585C1.66196 5.28894 1.66483 5.82186 1.66838 6.35495C1.67057 6.68397 1.67311 7.013 1.67513 7.34219L1.67767 7.68486L1.91719 7.69082L1.93273 7.69116L1.99354 7.69287L2.00131 7.69304L2.06972 7.69508C2.28628 7.70156 2.50283 7.70906 2.71955 7.71043H2.72732C2.75232 7.71043 2.77749 7.70923 2.80266 7.70821C2.86059 7.70531 2.91904 7.69645 2.97275 7.6736C2.99505 7.66423 3.01634 7.65263 3.0361 7.63883C3.1062 7.67974 3.17968 7.71537 3.25704 7.73992C3.31025 7.75748 3.36447 7.77197 3.4192 7.78271C3.58643 7.81561 3.75873 7.81647 3.9268 7.79106C4.08356 7.76691 4.23647 7.72191 4.38152 7.65724C4.45517 7.62536 4.52645 7.58734 4.59402 7.5437C4.78518 7.41889 4.94901 7.25592 5.07544 7.06482C5.09993 7.02834 5.12341 6.99135 5.14385 6.95231C5.19824 6.84951 5.2354 6.7375 5.25533 6.62277C5.30195 6.37097 5.30871 6.11304 5.28743 5.85817C5.28098 5.77369 5.27027 5.68959 5.25533 5.6062C5.22847 5.46095 5.18439 5.31775 5.11513 5.18682C5.09225 5.14465 5.06779 5.10337 5.04182 5.06306C4.93236 4.8919 4.79875 4.73523 4.6398 4.60907C4.61333 4.58759 4.5857 4.56761 4.55703 4.54923C4.43169 4.46894 4.29183 4.4137 4.14859 4.37586C3.92036 4.31409 3.68152 4.30339 3.44876 4.34449C3.35451 4.36171 3.26177 4.3883 3.17292 4.42461V3.15846H1.65216L1.6525 3.24916ZM12.3492 4.31585C12.2463 4.31755 12.1438 4.3288 12.0428 4.34824C11.8481 4.38559 11.6609 4.45517 11.4887 4.55418C11.2734 4.68097 11.0941 4.86179 10.9684 5.07908C10.9296 5.14591 10.8963 5.21581 10.8681 5.28792C10.8102 5.43419 10.7722 5.58796 10.7504 5.74378C10.7048 5.54103 10.6217 5.34877 10.5054 5.17711C10.3982 5.01801 10.2665 4.87724 10.1152 4.76012C9.78917 4.50995 9.39509 4.36641 8.98587 4.34875C8.91376 4.34634 8.84157 4.34805 8.76965 4.35386C8.42325 4.38322 8.0911 4.50631 7.80818 4.71016C7.65243 4.82231 7.51574 4.95923 7.40345 5.11556C7.29596 5.26414 7.21585 5.43103 7.16697 5.60825C7.14737 5.68138 7.13403 5.7564 7.12727 5.83192C7.11545 5.9712 7.10447 6.11099 7.11038 6.25079C7.11173 6.2888 7.11477 6.32682 7.12068 6.36449C7.13622 6.46559 7.16849 6.56327 7.20818 6.65721C7.23149 6.71295 7.25734 6.76751 7.28403 6.82172C7.42804 7.08713 7.62732 7.31791 7.86814 7.49818C8.0103 7.60211 8.16892 7.68091 8.33722 7.73123C8.50732 7.78339 8.68469 7.80965 8.86222 7.81544C8.93114 7.81732 9.00022 7.81544 9.06897 7.81084C9.2801 7.79765 9.48781 7.7507 9.68434 7.67173C9.71353 7.66014 9.74216 7.64716 9.77015 7.63286C9.89346 7.5691 10.0092 7.49102 10.1166 7.40271C10.2144 7.32259 10.3053 7.23394 10.3899 7.13966C10.4441 7.0788 10.4935 7.01334 10.5374 6.94429C10.6325 6.79469 10.7023 6.63014 10.744 6.45741C10.763 6.63181 10.8031 6.80501 10.8745 6.96543C10.9193 7.06602 10.9767 7.16131 11.0468 7.24604C11.1414 7.35946 11.2531 7.45715 11.3777 7.53552C11.5064 7.61854 11.6455 7.68417 11.7874 7.74111C11.8488 7.76532 11.9127 7.78305 11.9774 7.79533V9.22309L12.2161 9.21286L12.2401 9.21184L12.264 9.21081L12.2718 9.21047L12.3233 9.2086C12.5456 9.20007 12.7679 9.19377 12.9899 9.17945C13.1417 9.16819 13.2929 9.13325 13.4304 9.06625C13.4683 9.04749 13.5061 9.02823 13.5427 9.00709C13.6854 8.92386 13.8158 8.82098 13.9302 8.70142C13.9453 8.68642 13.9591 8.67057 13.9725 8.65403C14.0654 8.54288 14.1471 8.42081 14.2039 8.28665C14.2292 8.22698 14.249 8.16475 14.2635 8.10151C14.3024 7.93699 14.3182 7.76822 14.3267 7.59979C14.3311 7.51404 14.334 7.42828 14.337 7.34253C14.3492 6.797 14.3458 6.2513 14.3459 5.70559C14.3459 5.57194 14.3463 5.43828 14.3461 5.30463V4.37637H12.8715V4.41558C12.7058 4.34719 12.5282 4.31326 12.3492 4.31585ZM9.01002 5.77464C9.02742 5.77532 9.04549 5.77617 9.06171 5.78316C9.06745 5.78691 9.07201 5.7922 9.07742 5.79646C9.13654 5.84897 9.19262 5.90557 9.24161 5.96779C9.2482 5.97972 9.24938 5.9937 9.25056 6.007C9.25292 6.04161 9.24972 6.07604 9.24701 6.11031C9.23471 6.19888 9.18955 6.27943 9.12066 6.33568C9.08671 6.3633 9.04702 6.38376 9.00462 6.39382C8.95023 6.40916 8.89144 6.40405 8.83857 6.38461C8.77105 6.36021 8.71344 6.31393 8.67472 6.253C8.66039 6.22929 8.64921 6.20378 8.64144 6.17714C8.62161 6.10442 8.62851 6.02691 8.66087 5.95892C8.67269 5.93403 8.68773 5.91085 8.70513 5.88971C8.73519 5.84607 8.77742 5.80993 8.82742 5.7922C8.84364 5.7864 8.8607 5.78367 8.87759 5.78146C8.91537 5.77628 8.95349 5.774 8.99161 5.77464C8.99769 5.7743 9.00377 5.77447 9.01002 5.77464ZM12.595 5.77805C12.623 5.77805 12.6509 5.78197 12.6774 5.79083C12.7544 5.81606 12.8203 5.87505 12.8534 5.94972C12.864 5.97188 12.8728 5.99455 12.8786 6.01842C12.8926 6.07519 12.8922 6.13639 12.8728 6.1918C12.865 6.21362 12.8541 6.23442 12.8402 6.25317L12.8358 6.25897C12.7997 6.30468 12.7529 6.34065 12.6997 6.36364C12.6625 6.38039 12.6234 6.39242 12.5833 6.39944C12.5568 6.39871 12.5307 6.39293 12.5063 6.3824C12.4784 6.37127 12.4511 6.35875 12.4245 6.34489C12.3787 6.31413 12.3434 6.26983 12.3235 6.21805C12.2965 6.15158 12.2909 6.07821 12.3076 6.00836C12.3157 5.97546 12.3296 5.94409 12.3488 5.9163C12.3934 5.8447 12.4693 5.79356 12.5522 5.78094C12.5664 5.77873 12.5808 5.77771 12.595 5.77805ZM3.5067 5.82749C3.53744 5.82766 3.56819 5.83345 3.5964 5.84556C3.66109 5.87283 3.71464 5.92705 3.73998 5.99319C3.75332 6.02882 3.75771 6.06735 3.75535 6.10503C3.75192 6.16066 3.73313 6.21422 3.70113 6.25965C3.66568 6.29676 3.6217 6.32446 3.57309 6.34029C3.51785 6.35921 3.45856 6.36603 3.40045 6.3604C3.35514 6.35362 3.31421 6.32936 3.28626 6.29272C3.25036 6.24926 3.22859 6.19569 3.22393 6.13929C3.21711 6.07545 3.22997 6.01103 3.26076 5.95483C3.28018 5.92074 3.30789 5.8909 3.34201 5.8713C3.3915 5.84181 3.44927 5.8268 3.5067 5.82749Z" fill="#8D9299"/>
<path d="M7.84789 14.9222C7.77188 14.8499 7.50837 14.2727 7.01209 13.0954L6.28811 11.3677H4.13391C2.88696 11.3677 1.87701 11.3498 1.7385 11.3227C1.3809 11.255 0.898132 10.9979 0.638845 10.7363C0.375334 10.4703 0.120607 10.0056 0.048986 9.66276C0.0133444 9.50046 0 8.24642 0 5.67099C0 2.44126 0.00878367 1.87749 0.0668912 1.64751C0.281416 0.817448 0.965192 0.18139 1.78765 0.0506323C2.18967 -0.0168774 13.8144 -0.0168774 14.2122 0.0506323C15.0122 0.176957 15.6737 0.75437 15.9105 1.52119C15.9954 1.80537 16 1.93613 16 5.65735C16 8.07952 15.9819 9.56814 15.9507 9.6943C15.8301 10.2311 15.3742 10.8264 14.8916 11.0881C14.3955 11.3543 14.2747 11.3677 11.906 11.3677H9.75632L9.03234 13.0954C8.62998 14.0425 8.27255 14.8499 8.23218 14.8905C8.09823 15.0259 7.97306 15.0349 7.84789 14.9222ZM13.4076 8.77422C13.5417 8.6975 13.7161 8.55311 13.7965 8.44485C14.0602 8.09316 14.0781 7.9624 14.0781 6.21669V4.64692H13.1396V4.93111L13.0412 4.84093C12.7953 4.61538 12.4647 4.53867 12.0848 4.61538C11.3696 4.76421 10.9943 5.27854 10.9943 6.10844C10.9943 6.80314 11.182 7.15041 11.6914 7.40306C11.9195 7.51574 12.0357 7.54728 12.2367 7.54728C12.5585 7.54285 12.8267 7.47057 12.9831 7.34441L13.1081 7.24502L13.0769 7.44363C13.0144 7.83607 12.8088 8.03008 12.4512 8.03008H12.2456V8.94112L12.7059 8.92305C13.1083 8.90941 13.1887 8.89151 13.4076 8.77422ZM4.31718 7.38942C4.57191 7.27213 4.81769 7.01948 4.9339 6.77143C5.05907 6.48724 5.06363 5.81521 4.94285 5.46335C4.8535 5.1974 4.58086 4.86343 4.36178 4.74631C3.90604 4.50713 3.32496 4.5477 3.00774 4.84093L2.90487 4.93128V3.42919H1.92177L1.93055 5.4272L1.94407 7.42096L2.42666 7.4346C2.88257 7.44823 2.90487 7.44363 2.90487 7.35328C2.90487 7.24059 2.91838 7.24059 3.12395 7.37595C3.43679 7.58786 3.89253 7.59246 4.31718 7.38959V7.38942ZM9.55074 7.4346C9.82338 7.33538 10.1943 7.01522 10.3418 6.74893C10.8289 5.89193 10.2747 4.85456 9.22 4.64692C8.55852 4.51616 7.84333 4.84093 7.53066 5.41834C7.43219 5.60774 7.39654 5.73407 7.38303 6.00479C7.36529 6.30688 7.37864 6.37899 7.4859 6.6226C7.61546 6.91583 7.91039 7.23616 8.17863 7.37595C8.56748 7.57882 9.10379 7.60149 9.55074 7.4346ZM6.73946 5.89636L6.72611 4.35387L6.57865 4.05161C6.37307 3.63223 6.04673 3.40651 5.51042 3.31633L5.31836 3.28479V3.78549C5.31836 4.2139 5.32731 4.28619 5.38981 4.28619C5.43001 4.28619 5.52832 4.35387 5.61329 4.43962L5.76531 4.59288V7.44363H6.7528L6.73946 5.89636Z" fill="white"/>
<path d="M12.3483 6.6092C12.0534 6.48287 11.9372 6.07696 12.1115 5.78817C12.3531 5.38686 12.9161 5.42283 13.1037 5.85125C13.2422 6.17175 13.1037 6.50077 12.7686 6.62727C12.6031 6.69034 12.5225 6.68591 12.3483 6.6092ZM3.18204 6.55959C2.8513 6.32944 2.88695 5.78817 3.24454 5.61684C3.73609 5.38226 4.20551 5.87392 3.95518 6.36115C3.83001 6.6092 3.40535 6.71745 3.18204 6.55959ZM8.63891 6.58669C8.57236 6.54647 8.51464 6.49296 8.46929 6.42944C8.42395 6.36591 8.39193 6.29371 8.37519 6.21726C8.35846 6.14081 8.35737 6.06172 8.37199 5.98483C8.38661 5.90794 8.41662 5.83487 8.4602 5.7701C8.58976 5.57626 8.72827 5.50415 8.9786 5.50415C9.14397 5.50415 9.19752 5.52665 9.34515 5.67991C9.49262 5.82891 9.51931 5.88296 9.51931 6.04985C9.51931 6.53248 9.03232 6.83014 8.63891 6.58669Z" fill="white"/>
</svg>
