<svg width="40" height="40" viewBox="0 0 40 40" 
fill="#2E6FF2" xmlns="http://www.w3.org/2000/svg">
<path d="M33.3862 7.42582C33.3135 7.25021 33.2061 7.0856 33.0638 6.94253C33.0617 6.9404 33.0596 6.93828 33.0575 6.93616C32.7863 6.66658 32.4126 6.5 32 6.5H12C11.1716 6.5 10.5 7.17157 10.5 8C10.5 8.82843 11.1716 9.5 12 9.5H28.3787L6.93934 30.9393C6.35355 31.5251 6.35355 32.4749 6.93934 33.0607C7.52513 33.6464 8.47487 33.6464 9.06066 33.0607L30.5 11.6213V28C30.5 28.8284 31.1716 29.5 32 29.5C32.8284 29.5 33.5 28.8284 33.5 28V8C33.5 7.79662 33.4595 7.60268 33.3862 7.42582Z" />
</svg>
