<svg width="230" height="22" viewBox="0 0 230 22" fill="none" xmlns="http://www.w3.org/2000/svg">
<g id="Group 39532">
<g id="Group">
<path id="Vector" d="M86.9051 20.9292C85.9151 20.9292 85.1134 20.136 85.1134 19.1563C85.1134 14.8138 81.5414 11.2793 77.1525 11.2793C72.7639 11.2793 69.1917 14.8138 69.1917 19.1563C69.1917 20.136 68.3902 20.9292 67.4001 20.9292C66.4099 20.9292 65.6084 20.136 65.6084 19.1563C65.6084 12.8581 70.7872 7.7336 77.1525 7.7336C83.5178 7.7336 88.6969 12.8581 88.6969 19.1563C88.6969 20.136 87.8952 20.9292 86.9051 20.9292Z" fill="#2E6FF2"/>
<path id="Vector_2" d="M114.46 20.9292C113.996 20.9292 113.532 20.7557 113.177 20.4105L103.306 10.7609C102.598 10.0685 102.598 8.94514 103.306 8.25284C104.014 7.56052 105.162 7.56052 105.872 8.25284L114.46 16.6484L123.048 8.25284C123.756 7.56052 124.904 7.56052 125.614 8.25284C126.322 8.94514 126.322 10.0685 125.614 10.7609L115.743 20.4105C115.388 20.7557 114.924 20.9292 114.46 20.9292Z" fill="#2E6FF2"/>
<path id="Vector_3" d="M95.8767 20.9292C94.8653 20.9292 94.0466 20.1362 94.0466 19.1567V9.22531C94.0466 8.2458 94.8653 7.45284 95.8767 7.45284C96.8881 7.45284 97.7068 8.2458 97.7068 9.22531V19.1567C97.7068 20.1362 96.8881 20.9292 95.8767 20.9292Z" fill="#2E6FF2"/>
<path id="Vector_4" d="M96.0191 4.82393C97.3512 4.82393 98.4311 3.74406 98.4311 2.41196C98.4311 1.07987 97.3512 0 96.0191 0C94.687 0 93.6071 1.07987 93.6071 2.41196C93.6071 3.74406 94.687 4.82393 96.0191 4.82393Z" fill="#2E6FF2"/>
<path id="Vector_5" d="M128.638 20.9037C129.97 20.9037 131.05 19.8238 131.05 18.4917C131.05 17.1596 129.97 16.0798 128.638 16.0798C127.306 16.0798 126.226 17.1596 126.226 18.4917C126.226 19.8238 127.306 20.9037 128.638 20.9037Z" fill="#2E6FF2"/>
<path id="Vector_6" d="M54.2981 21.4917C53.3377 21.4917 52.3771 21.305 51.4601 20.9317C49.592 20.1718 48.1304 18.726 47.3443 16.8612C46.5585 14.9964 46.5433 12.9392 47.3027 11.063C48.0583 9.18868 49.499 7.722 51.3558 6.9334C53.2123 6.14483 55.2645 6.1296 57.1344 6.8915C59.0024 7.65152 60.464 9.09726 61.2501 10.962C61.6183 11.8344 61.2101 12.8402 60.3425 13.2078L51.4943 16.9621C51.8549 17.2954 52.2764 17.5641 52.7434 17.7546C53.7666 18.1717 54.8906 18.1621 55.9061 17.7316C56.8459 17.3335 57.6032 16.604 58.036 15.6783C58.4366 14.8212 59.4542 14.4535 60.3085 14.8554C61.1628 15.2574 61.5292 16.2783 61.1286 17.1355C60.337 18.8269 58.953 20.1603 57.2368 20.8899C56.2916 21.2917 55.2948 21.4917 54.2981 21.4917ZM52.6865 10.0916C51.6709 10.5239 50.8812 11.3259 50.4654 12.3526C50.2754 12.8211 50.1748 13.3126 50.1615 13.804L57.0983 10.8611C56.7377 10.5278 56.3143 10.2668 55.8491 10.0687C55.2834 9.8287 54.0627 9.50488 52.6865 10.0916Z" fill="#2E6FF2"/>
<path id="Vector_7" d="M41.2675 7.70808C40.266 7.70808 39.4554 8.50118 39.4554 9.48092C39.4554 13.8235 35.8425 17.3579 31.4038 17.3579C26.9648 17.3579 23.3519 13.8235 23.3519 9.48092C23.3519 8.50118 22.5413 7.70808 21.5397 7.70808C20.5384 7.70808 19.7276 8.50118 19.7276 9.48092C19.7276 13.8235 16.1148 17.3579 11.676 17.3579C7.23718 17.3579 3.62431 13.8235 3.62431 9.48092C3.62431 8.50118 2.81361 7.70808 1.81214 7.70808C0.810695 7.70808 0 8.50118 0 9.48092C0 15.7792 5.23807 20.9037 11.676 20.9037C15.823 20.9037 19.4682 18.7763 21.5397 15.5814C23.6115 18.7763 27.2586 20.9037 31.4038 20.9037C37.8416 20.9037 43.0797 15.7792 43.0797 9.48092C43.0797 8.50118 42.2689 7.70808 41.2675 7.70808Z" fill="#2E6FF2"/>
</g>
<g id="Group_2">
<path id="Vector_8" d="M145.277 5.98499C141.327 5.98499 138.348 9.19104 138.348 13.442C138.348 17.693 141.327 20.899 145.277 20.899C148.264 20.899 150.74 19.3326 151.583 16.9098L151.768 16.3776H149.825L149.727 16.6364C149.155 18.1471 147.367 19.1617 145.277 19.1617C142.589 19.1617 140.558 17.1832 140.217 14.2985H152.111L152.174 13.9742C152.202 13.8346 152.206 13.61 152.206 13.442C152.206 9.19104 149.227 5.98499 145.277 5.98499ZM145.277 7.72131C147.964 7.72131 149.996 9.69006 150.336 12.5612H140.217C140.558 9.69006 142.589 7.72131 145.277 7.72131Z" fill="#47494D"/>
<path id="Vector_9" d="M166.693 8.44885C165.607 7.10413 163.673 5.98499 161.309 5.98499C157.359 5.98499 154.379 9.19104 154.379 13.442C154.379 17.693 157.359 20.899 161.309 20.899C163.673 20.899 165.607 19.7799 166.693 18.4352V20.5631H168.501V0.224243H166.693V8.44885ZM161.38 19.1617C158.324 19.1617 156.189 16.8102 156.189 13.442C156.189 10.0739 158.324 7.72131 161.38 7.72131C164.473 7.72131 166.717 10.1266 166.717 13.442C166.717 16.7565 164.473 19.1617 161.38 19.1617Z" fill="#47494D"/>
<path id="Vector_10" d="M183.782 13.7301C183.782 16.2946 181.685 19.1617 178.877 19.1617C176.294 19.1617 174.813 17.4615 174.813 14.4977V6.32092H173.004V14.6656C173.004 18.3356 175.331 20.899 178.662 20.899C181.089 20.899 182.831 19.653 183.782 18.4264V20.5631H185.59V6.32092H183.782V13.7301Z" fill="#47494D"/>
<path id="Vector_11" d="M196.661 0.800415L188.181 20.5631H190.181L192.533 15.0426H202.565L204.917 20.5631H206.892L198.413 0.800415H196.661ZM193.306 13.2819L197.548 3.34729L201.792 13.2819H193.306Z" fill="#47494D"/>
<path id="Vector_12" d="M216.268 0.800415H209.603V20.5631H211.436V14.0826H216.268C221.327 14.0826 224.469 11.5377 224.469 7.44104C224.469 3.34534 221.327 0.800415 216.268 0.800415ZM211.436 2.56116H216.076C218.526 2.56116 222.636 3.19495 222.636 7.44104C222.636 11.6881 218.526 12.3219 216.076 12.3219H211.436V2.56116Z" fill="#47494D"/>
<path id="Vector_13" d="M229.485 0.800415H227.652V20.5631H229.485V0.800415Z" fill="#47494D"/>
</g>
</g>
</svg>
