<svg width="230" height="22" viewBox="0 0 230 22" fill="none" xmlns="http://www.w3.org/2000/svg">
<g id="Group 39532">
<g id="Group">
<path id="Vector" d="M86.9051 20.9292C85.9151 20.9292 85.1134 20.136 85.1134 19.1563C85.1134 14.8138 81.5414 11.2793 77.1525 11.2793C72.7639 11.2793 69.1917 14.8138 69.1917 19.1563C69.1917 20.136 68.3902 20.9292 67.4001 20.9292C66.4099 20.9292 65.6084 20.136 65.6084 19.1563C65.6084 12.8581 70.7872 7.73364 77.1525 7.73364C83.5178 7.73364 88.6969 12.8581 88.6969 19.1563C88.6969 20.136 87.8952 20.9292 86.9051 20.9292Z" fill="#8D9299"/>
<path id="Vector_2" d="M114.46 20.9292C113.996 20.9292 113.532 20.7558 113.177 20.4105L103.306 10.7609C102.598 10.0686 102.598 8.94519 103.306 8.25289C104.014 7.56056 105.162 7.56056 105.872 8.25289L114.46 16.6484L123.048 8.25289C123.756 7.56056 124.904 7.56056 125.614 8.25289C126.322 8.94519 126.322 10.0686 125.614 10.7609L115.743 20.4105C115.388 20.7558 114.924 20.9292 114.46 20.9292Z" fill="#8D9299"/>
<path id="Vector_3" d="M95.8767 20.9292C94.8653 20.9292 94.0466 20.1363 94.0466 19.1568V9.22535C94.0466 8.24584 94.8653 7.45288 95.8767 7.45288C96.8881 7.45288 97.7068 8.24584 97.7068 9.22535V19.1568C97.7068 20.1363 96.8881 20.9292 95.8767 20.9292Z" fill="#8D9299"/>
<path id="Vector_4" d="M96.0191 4.82393C97.3512 4.82393 98.4311 3.74406 98.4311 2.41196C98.4311 1.07987 97.3512 0 96.0191 0C94.687 0 93.6071 1.07987 93.6071 2.41196C93.6071 3.74406 94.687 4.82393 96.0191 4.82393Z" fill="#8D9299"/>
<path id="Vector_5" d="M128.638 20.9038C129.97 20.9038 131.05 19.8239 131.05 18.4918C131.05 17.1597 129.97 16.0798 128.638 16.0798C127.306 16.0798 126.226 17.1597 126.226 18.4918C126.226 19.8239 127.306 20.9038 128.638 20.9038Z" fill="#8D9299"/>
<path id="Vector_6" d="M54.2981 21.4917C53.3377 21.4917 52.3771 21.305 51.4601 20.9317C49.592 20.1718 48.1304 18.726 47.3443 16.8612C46.5585 14.9964 46.5433 12.9392 47.3027 11.063C48.0583 9.18866 49.499 7.72198 51.3558 6.93339C53.2123 6.14481 55.2645 6.12958 57.1344 6.89149C59.0024 7.65151 60.464 9.09724 61.2501 10.962C61.6183 11.8344 61.2101 12.8401 60.3425 13.2078L51.4943 16.9621C51.8549 17.2954 52.2764 17.5641 52.7434 17.7546C53.7666 18.1717 54.8906 18.1621 55.9061 17.7316C56.8459 17.3335 57.6032 16.604 58.036 15.6783C58.4366 14.8212 59.4542 14.4535 60.3085 14.8554C61.1628 15.2573 61.5292 16.2783 61.1286 17.1355C60.337 18.8268 58.953 20.1603 57.2368 20.8899C56.2916 21.2916 55.2948 21.4917 54.2981 21.4917ZM52.6865 10.0915C51.6709 10.5239 50.8812 11.3258 50.4654 12.3525C50.2754 12.8211 50.1748 13.3125 50.1615 13.804L57.0983 10.8611C56.7377 10.5277 56.3143 10.2668 55.8491 10.0687C55.2834 9.82869 54.0627 9.50486 52.6865 10.0915Z" fill="#8D9299"/>
<path id="Vector_7" d="M41.2675 7.70801C40.266 7.70801 39.4554 8.50111 39.4554 9.48085C39.4554 13.8234 35.8425 17.3578 31.4038 17.3578C26.9648 17.3578 23.3519 13.8234 23.3519 9.48085C23.3519 8.50111 22.5413 7.70801 21.5397 7.70801C20.5384 7.70801 19.7276 8.50111 19.7276 9.48085C19.7276 13.8234 16.1148 17.3578 11.676 17.3578C7.23718 17.3578 3.62431 13.8234 3.62431 9.48085C3.62431 8.50111 2.81361 7.70801 1.81214 7.70801C0.810695 7.70801 0 8.50111 0 9.48085C0 15.7791 5.23807 20.9036 11.676 20.9036C15.823 20.9036 19.4682 18.7763 21.5397 15.5813C23.6115 18.7763 27.2586 20.9036 31.4038 20.9036C37.8416 20.9036 43.0797 15.7791 43.0797 9.48085C43.0797 8.50111 42.2689 7.70801 41.2675 7.70801Z" fill="#8D9299"/>
</g>
<g id="Group_2">
<path id="Vector_8" d="M145.277 5.98486C141.327 5.98486 138.348 9.19092 138.348 13.4419C138.348 17.6929 141.327 20.8989 145.277 20.8989C148.264 20.8989 150.74 19.3325 151.583 16.9097L151.768 16.3774H149.825L149.727 16.6362C149.155 18.147 147.367 19.1616 145.277 19.1616C142.589 19.1616 140.558 17.1831 140.217 14.2983H152.111L152.174 13.9741C152.202 13.8345 152.206 13.6099 152.206 13.4419C152.206 9.19092 149.227 5.98486 145.277 5.98486ZM145.277 7.72119C147.964 7.72119 149.996 9.68994 150.336 12.561H140.217C140.558 9.68994 142.589 7.72119 145.277 7.72119Z" fill="#8D9299"/>
<path id="Vector_9" d="M166.693 8.44873C165.607 7.104 163.673 5.98486 161.309 5.98486C157.359 5.98486 154.379 9.19092 154.379 13.4419C154.379 17.6929 157.359 20.8989 161.309 20.8989C163.673 20.8989 165.607 19.7798 166.693 18.4351V20.563H168.501V0.224121H166.693V8.44873ZM161.38 19.1616C158.324 19.1616 156.189 16.8101 156.189 13.4419C156.189 10.0737 158.324 7.72119 161.38 7.72119C164.473 7.72119 166.717 10.1265 166.717 13.4419C166.717 16.7563 164.473 19.1616 161.38 19.1616Z" fill="#8D9299"/>
<path id="Vector_10" d="M183.782 13.73C183.782 16.2944 181.685 19.1616 178.877 19.1616C176.294 19.1616 174.813 17.4614 174.813 14.4976V6.3208H173.004V14.6655C173.004 18.3354 175.331 20.8989 178.662 20.8989C181.089 20.8989 182.831 19.6528 183.782 18.4263V20.563H185.59V6.3208H183.782V13.73Z" fill="#8D9299"/>
<path id="Vector_11" d="M196.661 0.800293L188.181 20.563H190.181L192.533 15.0425H202.565L204.917 20.563H206.892L198.413 0.800293H196.661ZM193.306 13.2817L197.548 3.34717L201.792 13.2817H193.306Z" fill="#8D9299"/>
<path id="Vector_12" d="M216.268 0.800293H209.603V20.563H211.436V14.0825H216.268C221.327 14.0825 224.469 11.5376 224.469 7.44092C224.469 3.34521 221.327 0.800293 216.268 0.800293ZM211.436 2.56104H216.076C218.526 2.56104 222.636 3.19482 222.636 7.44092C222.636 11.688 218.526 12.3218 216.076 12.3218H211.436V2.56104Z" fill="#8D9299"/>
<path id="Vector_13" d="M229.485 0.800293H227.652V20.563H229.485V0.800293Z" fill="#8D9299"/>
</g>
</g>
</svg>
